<?xml version="1.0" encoding="utf-8"?>
<!-- Generator: Adobe Illustrator 23.0.0, SVG Export Plug-In . SVG Version: 6.00 Build 0)  -->
<svg version="1.1" xmlns="http://www.w3.org/2000/svg" xmlns:xlink="http://www.w3.org/1999/xlink" x="0px" y="0px"
	 viewBox="0 0 1920 1080" style="enable-background:new 0 0 1920 1080;" xml:space="preserve">
<style type="text/css">
	.st0{fill:#FFFFFF;}
</style>
<g id="Camada_2">
</g>
<g id="Camada_1">
	<path class="st0" d="M596.87,712c-0.36-1.4-1.48-2.51-2.91-2.87c-0.26-0.07-0.53-0.11-0.81-0.13h-1.22h-62.86h-1.01
		c-2.24,0-4.06,1.79-4.06,4v1v62v1.2c0.02,0.28,0.06,0.54,0.13,0.8c0.45,1.73,2.04,3,3.92,3h0.81h0.2h49.68v-5h-9.13v-6h-1.01v6
		h-6.08v-13h-1.01v13h-6.08v-6h-1.01v6h-6.08v-10h-1.01v10h-6.08v-6h-1.01v6h-11.15v-11h6.08v-1h-6.08v-6h10.14v-1h-10.14v-6h6.08
		v-1h-6.08v-6h6.08v-1h-6.08v-6h6.08v-1h-6.08v-6h10.14v-1h-10.14v-6h6.08v-1h-6.08v-8h62.86v40H597v-40v-1
		C597,712.65,596.96,712.32,596.87,712z"/>
	<g>
		<rect x="537.93" y="737.99" class="st0" width="2.82" height="15.8"/>
		<path class="st0" d="M551.98,745.46c0,0.85,0.05,2.3,0.14,4.35h-0.06l-5.78-11.83h-3.56v15.8h2.52v-7.43
			c0-0.9-0.06-2.41-0.17-4.52h0.08l5.79,11.95h3.58v-15.8h-2.54V745.46z"/>
		<path class="st0" d="M562.14,740.55c0.49,0,0.98,0.1,1.48,0.31c0.5,0.21,1,0.45,1.5,0.73l0.91-2.72c-1.3-0.74-2.6-1.11-3.89-1.11
			c-1.27,0-2.37,0.33-3.32,0.99c-0.94,0.66-1.67,1.61-2.17,2.84c-0.5,1.24-0.76,2.67-0.76,4.32c0,2.61,0.51,4.61,1.54,6
			c1.02,1.39,2.5,2.09,4.44,2.09c1.35,0,2.57-0.27,3.66-0.81v-2.81c-1.33,0.55-2.46,0.83-3.39,0.83c-2.23,0-3.34-1.76-3.34-5.28
			c0-1.69,0.29-3.01,0.87-3.96C560.26,741.02,561.08,740.55,562.14,740.55z"/>
		<polygon class="st0" points="575.08,744.18 569.81,744.18 569.81,737.99 566.99,737.99 566.99,753.78 569.81,753.78 
			569.81,746.97 575.08,746.97 575.08,753.78 577.89,753.78 577.89,737.99 575.08,737.99 		"/>
		<path class="st0" d="M589.34,725h-1.04c-0.13,0.41-0.37,1.02-0.71,1.84V727h0.62c0.14-0.2,0.34-0.51,0.6-0.93s0.43-0.73,0.54-0.94
			V725z"/>
		<path class="st0" d="M589.96,725c-0.13,0.41-0.37,1.02-0.71,1.84V727h0.62c0.14-0.2,0.34-0.51,0.6-0.93
			c0.25-0.42,0.43-0.73,0.54-0.94V725H589.96z"/>
		<path class="st0" d="M580.17,733.65l0.73-0.82c0.49-0.53,0.83-0.94,1.03-1.23s0.34-0.57,0.43-0.84c0.09-0.27,0.14-0.57,0.14-0.88
			c0-0.36-0.08-0.68-0.23-0.96c-0.15-0.28-0.36-0.5-0.64-0.65c-0.27-0.16-0.59-0.23-0.95-0.23c-0.27,0-0.52,0.03-0.73,0.1
			c-0.22,0.06-0.42,0.15-0.61,0.27c-0.19,0.12-0.42,0.32-0.7,0.6l0.66,0.92c0.23-0.22,0.44-0.39,0.65-0.52
			c0.21-0.12,0.42-0.18,0.64-0.18c0.21,0,0.38,0.07,0.51,0.2c0.13,0.13,0.19,0.34,0.19,0.61c0,0.18-0.03,0.36-0.09,0.53
			c-0.06,0.17-0.15,0.36-0.28,0.55c-0.13,0.2-0.41,0.56-0.83,1.07l-1.43,1.72v1h3.99v-1.21h-2.49V733.65z"/>
		<path class="st0" d="M584.61,728.03c-0.68,0-1.18,0.28-1.5,0.85c-0.33,0.57-0.49,1.45-0.49,2.65c0,1.15,0.17,2.02,0.5,2.6
			c0.33,0.59,0.83,0.88,1.49,0.88c0.68,0,1.18-0.28,1.51-0.85c0.33-0.57,0.49-1.45,0.49-2.63c0-1.14-0.17-2.01-0.51-2.61
			C585.76,728.32,585.26,728.03,584.61,728.03z M585.22,733.31c-0.12,0.37-0.33,0.55-0.61,0.55c-0.29,0-0.49-0.18-0.61-0.54
			c-0.12-0.36-0.18-0.96-0.18-1.79c0-0.83,0.06-1.43,0.18-1.79c0.12-0.36,0.33-0.55,0.61-0.55c0.28,0,0.48,0.18,0.61,0.55
			c0.13,0.36,0.19,0.96,0.19,1.79C585.4,732.35,585.34,732.94,585.22,733.31z"/>
	</g>
</g>
</svg>
